<?xml version="1.0" encoding="utf-8"?>
<!-- Generator: Adobe Illustrator 16.0.0, SVG Export Plug-In . SVG Version: 6.00 Build 0)  -->
<!DOCTYPE svg PUBLIC "-//W3C//DTD SVG 1.1//EN" "http://www.w3.org/Graphics/SVG/1.1/DTD/svg11.dtd">
<svg version="1.1" id="Layer_1" xmlns="http://www.w3.org/2000/svg" xmlns:xlink="http://www.w3.org/1999/xlink" x="0px" y="0px"
	 width="256px" height="256px" viewBox="0 0 256 256" enable-background="new 0 0 256 256" xml:space="preserve">
<path fill="#525252" d="M181.666,195h-16.333l-11.667-13c0,0,29-6.334,33.334-38.667V125c13.334,0.5,15-22,15-22
	c2.666-20.333-15-19.333-15-19.333c0-30.499-23.625-49.792-23.625-49.792L162.75,30.5c-11.625-7.375-29-8.875-29-8.875
	c-27-0.25-44.25-20-44.25-20c-5,14.625,1,33.75,1,33.75L85.25,41C75.375,40,69,28.75,69,28.75c-4,13,4.875,32.125,4.875,32.125
	C69.75,69.125,69,83.667,69,83.667s-17.667-1-15,19.333c0,0,1.667,22.5,15,22v18.333C73.333,175.666,102.333,182,102.333,182
	l-11.667,13H74.333C3.334,197.666,0,256,0,256h128h128C256,256,252.666,197.666,181.666,195z"/>
</svg>
