<?xml version="1.0" encoding="utf-8"?>
<!-- Generator: Adobe Illustrator 16.0.0, SVG Export Plug-In . SVG Version: 6.00 Build 0)  -->
<!DOCTYPE svg PUBLIC "-//W3C//DTD SVG 1.1//EN" "http://www.w3.org/Graphics/SVG/1.1/DTD/svg11.dtd">
<svg version="1.1" id="Layer_1" xmlns="http://www.w3.org/2000/svg" xmlns:xlink="http://www.w3.org/1999/xlink" x="0px" y="0px"
	 width="256px" height="256px" viewBox="0 0 256 256" enable-background="new 0 0 256 256" xml:space="preserve">
<path fill="#525252" d="M198,197c0,0-23-2-32-2h1l-12-12c0,0,16-6,20-14h1c0,0,25,3,40-11c0,0-21-13-17-38c0,0,1-13,6-25
	c0,0,17-49-29-78c0,0-23-14-47-3c-24-11-47,3-47,3C36,46,53,95,53,95c5,12,6,25,6,25c4,25-17,38-17,38c15,14,40,11,40,11
	c4,8,20,14,20,14l-12,12h1c-9,0-32,2-32,2C5,208,3,256,3,256h125h1h125C254,256,252,208,198,197z"/>
</svg>
